<mxfile host="app.diagrams.net" agent="Mozilla/5.0 (Windows NT 10.0; Win64; x64; rv:129.0) Gecko/20100101 Firefox/129.0" version="24.7.7">
  <diagram name="Page-1" id="vn8Fsap9-blnMx6jX9X1">
    <mxGraphModel dx="2338" dy="725" grid="1" gridSize="10" guides="1" tooltips="1" connect="1" arrows="1" fold="1" page="0" pageScale="1" pageWidth="827" pageHeight="1169" math="0" shadow="0">
      <root>
        <mxCell id="0" />
        <mxCell id="1" parent="0" />
        <mxCell id="XGTD9m73oqBzsViWo1ol-64" style="edgeStyle=orthogonalEdgeStyle;shape=connector;rounded=0;orthogonalLoop=1;jettySize=auto;html=1;exitX=1;exitY=0.25;exitDx=0;exitDy=0;exitPerimeter=0;entryX=0;entryY=0.5;entryDx=0;entryDy=0;strokeColor=default;align=center;verticalAlign=middle;fontFamily=Helvetica;fontSize=11;fontColor=default;labelBackgroundColor=default;endArrow=none;endFill=0;" edge="1" parent="1" source="XGTD9m73oqBzsViWo1ol-1" target="XGTD9m73oqBzsViWo1ol-61">
          <mxGeometry relative="1" as="geometry" />
        </mxCell>
        <mxCell id="XGTD9m73oqBzsViWo1ol-65" style="edgeStyle=orthogonalEdgeStyle;shape=connector;rounded=0;orthogonalLoop=1;jettySize=auto;html=1;exitX=1;exitY=0.25;exitDx=0;exitDy=0;exitPerimeter=0;entryX=1;entryY=0.5;entryDx=0;entryDy=0;strokeColor=default;align=center;verticalAlign=middle;fontFamily=Helvetica;fontSize=11;fontColor=default;labelBackgroundColor=default;endArrow=none;endFill=0;" edge="1" parent="1" source="XGTD9m73oqBzsViWo1ol-1" target="XGTD9m73oqBzsViWo1ol-61">
          <mxGeometry relative="1" as="geometry">
            <Array as="points">
              <mxPoint x="120" y="260" />
              <mxPoint x="120" y="220" />
              <mxPoint x="220" y="220" />
              <mxPoint x="220" y="260" />
            </Array>
          </mxGeometry>
        </mxCell>
        <mxCell id="XGTD9m73oqBzsViWo1ol-1" value="" style="verticalLabelPosition=bottom;shadow=0;dashed=0;align=center;html=1;verticalAlign=top;shape=mxgraph.electrical.logic_gates.d_type_flip-flop;" vertex="1" parent="1">
          <mxGeometry x="-20" y="240" width="100" height="80" as="geometry" />
        </mxCell>
        <mxCell id="XGTD9m73oqBzsViWo1ol-2" value="" style="verticalLabelPosition=bottom;shadow=0;dashed=0;align=center;html=1;verticalAlign=top;shape=mxgraph.electrical.abstract.summation_point;" vertex="1" parent="1">
          <mxGeometry x="-80" y="240" width="40" height="40" as="geometry" />
        </mxCell>
        <mxCell id="XGTD9m73oqBzsViWo1ol-4" value="" style="shape=sumEllipse;perimeter=ellipsePerimeter;whiteSpace=wrap;html=1;backgroundOutline=1;" vertex="1" parent="1">
          <mxGeometry x="-140" y="520" width="40" height="40" as="geometry" />
        </mxCell>
        <mxCell id="XGTD9m73oqBzsViWo1ol-6" style="edgeStyle=orthogonalEdgeStyle;rounded=0;orthogonalLoop=1;jettySize=auto;html=1;exitX=1;exitY=0.5;exitDx=0;exitDy=0;exitPerimeter=0;entryX=0;entryY=0.25;entryDx=0;entryDy=0;entryPerimeter=0;endArrow=none;endFill=0;" edge="1" parent="1" source="XGTD9m73oqBzsViWo1ol-2" target="XGTD9m73oqBzsViWo1ol-1">
          <mxGeometry relative="1" as="geometry" />
        </mxCell>
        <mxCell id="XGTD9m73oqBzsViWo1ol-8" style="edgeStyle=orthogonalEdgeStyle;shape=connector;rounded=0;orthogonalLoop=1;jettySize=auto;html=1;exitX=1;exitY=0.25;exitDx=0;exitDy=0;exitPerimeter=0;entryX=0.5;entryY=0;entryDx=0;entryDy=0;entryPerimeter=0;strokeColor=default;align=center;verticalAlign=middle;fontFamily=Helvetica;fontSize=11;fontColor=default;labelBackgroundColor=default;endArrow=none;endFill=0;" edge="1" parent="1" source="XGTD9m73oqBzsViWo1ol-1" target="XGTD9m73oqBzsViWo1ol-2">
          <mxGeometry relative="1" as="geometry" />
        </mxCell>
        <mxCell id="XGTD9m73oqBzsViWo1ol-67" style="edgeStyle=orthogonalEdgeStyle;shape=connector;rounded=0;orthogonalLoop=1;jettySize=auto;html=1;exitX=1;exitY=0.25;exitDx=0;exitDy=0;exitPerimeter=0;entryX=0;entryY=0.5;entryDx=0;entryDy=0;strokeColor=default;align=center;verticalAlign=middle;fontFamily=Helvetica;fontSize=11;fontColor=default;labelBackgroundColor=default;endArrow=none;endFill=0;" edge="1" parent="1" source="XGTD9m73oqBzsViWo1ol-9" target="XGTD9m73oqBzsViWo1ol-63">
          <mxGeometry relative="1" as="geometry" />
        </mxCell>
        <mxCell id="XGTD9m73oqBzsViWo1ol-68" style="edgeStyle=orthogonalEdgeStyle;shape=connector;rounded=0;orthogonalLoop=1;jettySize=auto;html=1;exitX=1;exitY=0.25;exitDx=0;exitDy=0;exitPerimeter=0;entryX=1;entryY=0.5;entryDx=0;entryDy=0;strokeColor=default;align=center;verticalAlign=middle;fontFamily=Helvetica;fontSize=11;fontColor=default;labelBackgroundColor=default;endArrow=none;endFill=0;" edge="1" parent="1" source="XGTD9m73oqBzsViWo1ol-9" target="XGTD9m73oqBzsViWo1ol-63">
          <mxGeometry relative="1" as="geometry">
            <Array as="points">
              <mxPoint x="140" y="400" />
              <mxPoint x="140" y="370" />
              <mxPoint x="280" y="370" />
              <mxPoint x="280" y="400" />
            </Array>
          </mxGeometry>
        </mxCell>
        <mxCell id="XGTD9m73oqBzsViWo1ol-9" value="" style="verticalLabelPosition=bottom;shadow=0;dashed=0;align=center;html=1;verticalAlign=top;shape=mxgraph.electrical.logic_gates.d_type_flip-flop;" vertex="1" parent="1">
          <mxGeometry x="-20" y="380" width="100" height="80" as="geometry" />
        </mxCell>
        <mxCell id="XGTD9m73oqBzsViWo1ol-10" value="" style="verticalLabelPosition=bottom;shadow=0;dashed=0;align=center;html=1;verticalAlign=top;shape=mxgraph.electrical.abstract.summation_point;" vertex="1" parent="1">
          <mxGeometry x="-80" y="380" width="40" height="40" as="geometry" />
        </mxCell>
        <mxCell id="XGTD9m73oqBzsViWo1ol-11" style="edgeStyle=orthogonalEdgeStyle;rounded=0;orthogonalLoop=1;jettySize=auto;html=1;exitX=1;exitY=0.5;exitDx=0;exitDy=0;exitPerimeter=0;entryX=0;entryY=0.25;entryDx=0;entryDy=0;entryPerimeter=0;endArrow=none;endFill=0;" edge="1" parent="1" source="XGTD9m73oqBzsViWo1ol-10" target="XGTD9m73oqBzsViWo1ol-9">
          <mxGeometry relative="1" as="geometry" />
        </mxCell>
        <mxCell id="XGTD9m73oqBzsViWo1ol-12" style="edgeStyle=orthogonalEdgeStyle;shape=connector;rounded=0;orthogonalLoop=1;jettySize=auto;html=1;exitX=1;exitY=0.25;exitDx=0;exitDy=0;exitPerimeter=0;entryX=0.5;entryY=0;entryDx=0;entryDy=0;entryPerimeter=0;strokeColor=default;align=center;verticalAlign=middle;fontFamily=Helvetica;fontSize=11;fontColor=default;labelBackgroundColor=default;endArrow=none;endFill=0;" edge="1" parent="1" source="XGTD9m73oqBzsViWo1ol-9" target="XGTD9m73oqBzsViWo1ol-10">
          <mxGeometry relative="1" as="geometry" />
        </mxCell>
        <mxCell id="XGTD9m73oqBzsViWo1ol-45" style="edgeStyle=orthogonalEdgeStyle;shape=connector;rounded=0;orthogonalLoop=1;jettySize=auto;html=1;exitX=1;exitY=0.25;exitDx=0;exitDy=0;exitPerimeter=0;strokeColor=default;align=center;verticalAlign=middle;fontFamily=Helvetica;fontSize=11;fontColor=default;labelBackgroundColor=default;endArrow=none;endFill=0;entryX=0;entryY=0.5;entryDx=0;entryDy=0;entryPerimeter=0;" edge="1" parent="1" source="XGTD9m73oqBzsViWo1ol-13" target="XGTD9m73oqBzsViWo1ol-48">
          <mxGeometry relative="1" as="geometry">
            <mxPoint x="240" y="540" as="targetPoint" />
          </mxGeometry>
        </mxCell>
        <mxCell id="XGTD9m73oqBzsViWo1ol-13" value="" style="verticalLabelPosition=bottom;shadow=0;dashed=0;align=center;html=1;verticalAlign=top;shape=mxgraph.electrical.logic_gates.d_type_flip-flop;" vertex="1" parent="1">
          <mxGeometry y="520" width="100" height="80" as="geometry" />
        </mxCell>
        <mxCell id="XGTD9m73oqBzsViWo1ol-14" value="" style="verticalLabelPosition=bottom;shadow=0;dashed=0;align=center;html=1;verticalAlign=top;shape=mxgraph.electrical.abstract.summation_point;" vertex="1" parent="1">
          <mxGeometry x="-60" y="520" width="40" height="40" as="geometry" />
        </mxCell>
        <mxCell id="XGTD9m73oqBzsViWo1ol-15" style="edgeStyle=orthogonalEdgeStyle;rounded=0;orthogonalLoop=1;jettySize=auto;html=1;exitX=1;exitY=0.5;exitDx=0;exitDy=0;exitPerimeter=0;entryX=0;entryY=0.25;entryDx=0;entryDy=0;entryPerimeter=0;endArrow=none;endFill=0;" edge="1" parent="1" source="XGTD9m73oqBzsViWo1ol-14" target="XGTD9m73oqBzsViWo1ol-13">
          <mxGeometry relative="1" as="geometry" />
        </mxCell>
        <mxCell id="XGTD9m73oqBzsViWo1ol-16" style="edgeStyle=orthogonalEdgeStyle;shape=connector;rounded=0;orthogonalLoop=1;jettySize=auto;html=1;exitX=1;exitY=0.25;exitDx=0;exitDy=0;exitPerimeter=0;entryX=0.5;entryY=0;entryDx=0;entryDy=0;entryPerimeter=0;strokeColor=default;align=center;verticalAlign=middle;fontFamily=Helvetica;fontSize=11;fontColor=default;labelBackgroundColor=default;endArrow=none;endFill=0;" edge="1" parent="1" source="XGTD9m73oqBzsViWo1ol-13" target="XGTD9m73oqBzsViWo1ol-14">
          <mxGeometry relative="1" as="geometry" />
        </mxCell>
        <mxCell id="XGTD9m73oqBzsViWo1ol-17" value="" style="verticalLabelPosition=bottom;shadow=0;dashed=0;align=center;html=1;verticalAlign=top;shape=mxgraph.electrical.logic_gates.d_type_flip-flop;" vertex="1" parent="1">
          <mxGeometry y="660" width="100" height="80" as="geometry" />
        </mxCell>
        <mxCell id="XGTD9m73oqBzsViWo1ol-18" value="" style="verticalLabelPosition=bottom;shadow=0;dashed=0;align=center;html=1;verticalAlign=top;shape=mxgraph.electrical.abstract.summation_point;" vertex="1" parent="1">
          <mxGeometry x="-60" y="660" width="40" height="40" as="geometry" />
        </mxCell>
        <mxCell id="XGTD9m73oqBzsViWo1ol-19" style="edgeStyle=orthogonalEdgeStyle;rounded=0;orthogonalLoop=1;jettySize=auto;html=1;exitX=1;exitY=0.5;exitDx=0;exitDy=0;exitPerimeter=0;entryX=0;entryY=0.25;entryDx=0;entryDy=0;entryPerimeter=0;endArrow=none;endFill=0;" edge="1" parent="1" source="XGTD9m73oqBzsViWo1ol-18" target="XGTD9m73oqBzsViWo1ol-17">
          <mxGeometry relative="1" as="geometry" />
        </mxCell>
        <mxCell id="XGTD9m73oqBzsViWo1ol-20" style="edgeStyle=orthogonalEdgeStyle;shape=connector;rounded=0;orthogonalLoop=1;jettySize=auto;html=1;exitX=1;exitY=0.25;exitDx=0;exitDy=0;exitPerimeter=0;entryX=0.5;entryY=0;entryDx=0;entryDy=0;entryPerimeter=0;strokeColor=default;align=center;verticalAlign=middle;fontFamily=Helvetica;fontSize=11;fontColor=default;labelBackgroundColor=default;endArrow=none;endFill=0;" edge="1" parent="1" source="XGTD9m73oqBzsViWo1ol-17" target="XGTD9m73oqBzsViWo1ol-18">
          <mxGeometry relative="1" as="geometry" />
        </mxCell>
        <mxCell id="XGTD9m73oqBzsViWo1ol-21" style="edgeStyle=orthogonalEdgeStyle;shape=connector;rounded=0;orthogonalLoop=1;jettySize=auto;html=1;exitX=1;exitY=0.5;exitDx=0;exitDy=0;entryX=0;entryY=0.5;entryDx=0;entryDy=0;entryPerimeter=0;strokeColor=default;align=center;verticalAlign=middle;fontFamily=Helvetica;fontSize=11;fontColor=default;labelBackgroundColor=default;endArrow=none;endFill=0;" edge="1" parent="1" source="XGTD9m73oqBzsViWo1ol-4" target="XGTD9m73oqBzsViWo1ol-14">
          <mxGeometry relative="1" as="geometry" />
        </mxCell>
        <mxCell id="XGTD9m73oqBzsViWo1ol-22" value="" style="shape=sumEllipse;perimeter=ellipsePerimeter;whiteSpace=wrap;html=1;backgroundOutline=1;" vertex="1" parent="1">
          <mxGeometry x="-140" y="660" width="40" height="40" as="geometry" />
        </mxCell>
        <mxCell id="XGTD9m73oqBzsViWo1ol-24" style="edgeStyle=orthogonalEdgeStyle;shape=connector;rounded=0;orthogonalLoop=1;jettySize=auto;html=1;exitX=1;exitY=0.5;exitDx=0;exitDy=0;entryX=0;entryY=0.5;entryDx=0;entryDy=0;entryPerimeter=0;strokeColor=default;align=center;verticalAlign=middle;fontFamily=Helvetica;fontSize=11;fontColor=default;labelBackgroundColor=default;endArrow=none;endFill=0;" edge="1" parent="1" source="XGTD9m73oqBzsViWo1ol-22" target="XGTD9m73oqBzsViWo1ol-18">
          <mxGeometry relative="1" as="geometry" />
        </mxCell>
        <mxCell id="XGTD9m73oqBzsViWo1ol-25" value="" style="verticalLabelPosition=bottom;shadow=0;dashed=0;align=center;html=1;verticalAlign=top;shape=mxgraph.electrical.logic_gates.d_type_flip-flop;" vertex="1" parent="1">
          <mxGeometry y="800" width="100" height="80" as="geometry" />
        </mxCell>
        <mxCell id="XGTD9m73oqBzsViWo1ol-26" value="" style="verticalLabelPosition=bottom;shadow=0;dashed=0;align=center;html=1;verticalAlign=top;shape=mxgraph.electrical.abstract.summation_point;" vertex="1" parent="1">
          <mxGeometry x="-60" y="800" width="40" height="40" as="geometry" />
        </mxCell>
        <mxCell id="XGTD9m73oqBzsViWo1ol-27" style="edgeStyle=orthogonalEdgeStyle;rounded=0;orthogonalLoop=1;jettySize=auto;html=1;exitX=1;exitY=0.5;exitDx=0;exitDy=0;exitPerimeter=0;entryX=0;entryY=0.25;entryDx=0;entryDy=0;entryPerimeter=0;endArrow=none;endFill=0;" edge="1" parent="1" source="XGTD9m73oqBzsViWo1ol-26" target="XGTD9m73oqBzsViWo1ol-25">
          <mxGeometry relative="1" as="geometry" />
        </mxCell>
        <mxCell id="XGTD9m73oqBzsViWo1ol-28" style="edgeStyle=orthogonalEdgeStyle;shape=connector;rounded=0;orthogonalLoop=1;jettySize=auto;html=1;exitX=1;exitY=0.25;exitDx=0;exitDy=0;exitPerimeter=0;entryX=0.5;entryY=0;entryDx=0;entryDy=0;entryPerimeter=0;strokeColor=default;align=center;verticalAlign=middle;fontFamily=Helvetica;fontSize=11;fontColor=default;labelBackgroundColor=default;endArrow=none;endFill=0;" edge="1" parent="1" source="XGTD9m73oqBzsViWo1ol-25" target="XGTD9m73oqBzsViWo1ol-26">
          <mxGeometry relative="1" as="geometry" />
        </mxCell>
        <mxCell id="XGTD9m73oqBzsViWo1ol-29" value="" style="shape=sumEllipse;perimeter=ellipsePerimeter;whiteSpace=wrap;html=1;backgroundOutline=1;" vertex="1" parent="1">
          <mxGeometry x="-140" y="800" width="40" height="40" as="geometry" />
        </mxCell>
        <mxCell id="XGTD9m73oqBzsViWo1ol-30" style="edgeStyle=orthogonalEdgeStyle;shape=connector;rounded=0;orthogonalLoop=1;jettySize=auto;html=1;exitX=1;exitY=0.5;exitDx=0;exitDy=0;entryX=0;entryY=0.5;entryDx=0;entryDy=0;entryPerimeter=0;strokeColor=default;align=center;verticalAlign=middle;fontFamily=Helvetica;fontSize=11;fontColor=default;labelBackgroundColor=default;endArrow=none;endFill=0;" edge="1" parent="1" source="XGTD9m73oqBzsViWo1ol-29" target="XGTD9m73oqBzsViWo1ol-26">
          <mxGeometry relative="1" as="geometry" />
        </mxCell>
        <mxCell id="XGTD9m73oqBzsViWo1ol-37" style="edgeStyle=orthogonalEdgeStyle;shape=connector;rounded=0;orthogonalLoop=1;jettySize=auto;html=1;entryX=0;entryY=0.5;entryDx=0;entryDy=0;strokeColor=default;align=center;verticalAlign=middle;fontFamily=Helvetica;fontSize=11;fontColor=default;labelBackgroundColor=default;endArrow=none;endFill=0;" edge="1" parent="1" source="XGTD9m73oqBzsViWo1ol-34" target="XGTD9m73oqBzsViWo1ol-4">
          <mxGeometry relative="1" as="geometry">
            <Array as="points">
              <mxPoint x="-170" y="480" />
              <mxPoint x="-170" y="540" />
            </Array>
          </mxGeometry>
        </mxCell>
        <mxCell id="XGTD9m73oqBzsViWo1ol-38" style="edgeStyle=orthogonalEdgeStyle;shape=connector;rounded=0;orthogonalLoop=1;jettySize=auto;html=1;entryX=0.5;entryY=0;entryDx=0;entryDy=0;strokeColor=default;align=center;verticalAlign=middle;fontFamily=Helvetica;fontSize=11;fontColor=default;labelBackgroundColor=default;endArrow=none;endFill=0;" edge="1" parent="1" source="XGTD9m73oqBzsViWo1ol-34" target="XGTD9m73oqBzsViWo1ol-4">
          <mxGeometry relative="1" as="geometry" />
        </mxCell>
        <mxCell id="XGTD9m73oqBzsViWo1ol-44" style="edgeStyle=orthogonalEdgeStyle;shape=connector;rounded=0;orthogonalLoop=1;jettySize=auto;html=1;entryX=0.5;entryY=0;entryDx=0;entryDy=0;strokeColor=default;align=center;verticalAlign=middle;fontFamily=Helvetica;fontSize=11;fontColor=default;labelBackgroundColor=default;endArrow=none;endFill=0;" edge="1" parent="1" source="XGTD9m73oqBzsViWo1ol-34" target="XGTD9m73oqBzsViWo1ol-29">
          <mxGeometry relative="1" as="geometry">
            <Array as="points">
              <mxPoint x="-240" y="480" />
              <mxPoint x="-240" y="800" />
            </Array>
          </mxGeometry>
        </mxCell>
        <mxCell id="XGTD9m73oqBzsViWo1ol-34" value="" style="shape=waypoint;sketch=0;fillStyle=solid;size=6;pointerEvents=1;points=[];fillColor=none;resizable=0;rotatable=0;perimeter=centerPerimeter;snapToPoint=1;fontFamily=Helvetica;fontSize=11;fontColor=default;labelBackgroundColor=default;" vertex="1" parent="1">
          <mxGeometry x="-290" y="470" width="20" height="20" as="geometry" />
        </mxCell>
        <mxCell id="XGTD9m73oqBzsViWo1ol-40" style="edgeStyle=orthogonalEdgeStyle;shape=connector;rounded=0;orthogonalLoop=1;jettySize=auto;html=1;entryX=0;entryY=0.5;entryDx=0;entryDy=0;strokeColor=default;align=center;verticalAlign=middle;fontFamily=Helvetica;fontSize=11;fontColor=default;labelBackgroundColor=default;endArrow=none;endFill=0;" edge="1" parent="1" source="XGTD9m73oqBzsViWo1ol-35" target="XGTD9m73oqBzsViWo1ol-22">
          <mxGeometry relative="1" as="geometry">
            <Array as="points">
              <mxPoint x="-200" y="610" />
              <mxPoint x="-200" y="680" />
            </Array>
          </mxGeometry>
        </mxCell>
        <mxCell id="XGTD9m73oqBzsViWo1ol-42" style="edgeStyle=orthogonalEdgeStyle;shape=connector;rounded=0;orthogonalLoop=1;jettySize=auto;html=1;entryX=0.5;entryY=0;entryDx=0;entryDy=0;strokeColor=default;align=center;verticalAlign=middle;fontFamily=Helvetica;fontSize=11;fontColor=default;labelBackgroundColor=default;endArrow=none;endFill=0;" edge="1" parent="1" source="XGTD9m73oqBzsViWo1ol-35" target="XGTD9m73oqBzsViWo1ol-22">
          <mxGeometry relative="1" as="geometry" />
        </mxCell>
        <mxCell id="XGTD9m73oqBzsViWo1ol-43" style="edgeStyle=orthogonalEdgeStyle;shape=connector;rounded=0;orthogonalLoop=1;jettySize=auto;html=1;entryX=0;entryY=0.5;entryDx=0;entryDy=0;strokeColor=default;align=center;verticalAlign=middle;fontFamily=Helvetica;fontSize=11;fontColor=default;labelBackgroundColor=default;endArrow=none;endFill=0;" edge="1" parent="1" source="XGTD9m73oqBzsViWo1ol-35" target="XGTD9m73oqBzsViWo1ol-29">
          <mxGeometry relative="1" as="geometry">
            <Array as="points">
              <mxPoint x="-200" y="610" />
              <mxPoint x="-200" y="820" />
            </Array>
          </mxGeometry>
        </mxCell>
        <mxCell id="XGTD9m73oqBzsViWo1ol-35" value="" style="shape=waypoint;sketch=0;fillStyle=solid;size=6;pointerEvents=1;points=[];fillColor=none;resizable=0;rotatable=0;perimeter=centerPerimeter;snapToPoint=1;fontFamily=Helvetica;fontSize=11;fontColor=default;labelBackgroundColor=default;" vertex="1" parent="1">
          <mxGeometry x="-290" y="600" width="20" height="20" as="geometry" />
        </mxCell>
        <mxCell id="XGTD9m73oqBzsViWo1ol-36" style="edgeStyle=orthogonalEdgeStyle;shape=connector;rounded=0;orthogonalLoop=1;jettySize=auto;html=1;entryX=0;entryY=0.5;entryDx=0;entryDy=0;entryPerimeter=0;strokeColor=default;align=center;verticalAlign=middle;fontFamily=Helvetica;fontSize=11;fontColor=default;labelBackgroundColor=default;endArrow=none;endFill=0;" edge="1" parent="1" source="XGTD9m73oqBzsViWo1ol-34" target="XGTD9m73oqBzsViWo1ol-2">
          <mxGeometry relative="1" as="geometry">
            <Array as="points">
              <mxPoint x="-170" y="480" />
              <mxPoint x="-170" y="260" />
            </Array>
          </mxGeometry>
        </mxCell>
        <mxCell id="XGTD9m73oqBzsViWo1ol-39" style="edgeStyle=orthogonalEdgeStyle;shape=connector;rounded=0;orthogonalLoop=1;jettySize=auto;html=1;entryX=0;entryY=0.5;entryDx=0;entryDy=0;entryPerimeter=0;strokeColor=default;align=center;verticalAlign=middle;fontFamily=Helvetica;fontSize=11;fontColor=default;labelBackgroundColor=default;endArrow=none;endFill=0;" edge="1" parent="1" source="XGTD9m73oqBzsViWo1ol-35" target="XGTD9m73oqBzsViWo1ol-10">
          <mxGeometry relative="1" as="geometry">
            <Array as="points">
              <mxPoint x="-200" y="610" />
              <mxPoint x="-200" y="400" />
            </Array>
          </mxGeometry>
        </mxCell>
        <mxCell id="XGTD9m73oqBzsViWo1ol-51" style="edgeStyle=orthogonalEdgeStyle;shape=connector;rounded=0;orthogonalLoop=1;jettySize=auto;html=1;exitX=1;exitY=0.5;exitDx=0;exitDy=0;exitPerimeter=0;strokeColor=default;align=center;verticalAlign=middle;fontFamily=Helvetica;fontSize=11;fontColor=default;labelBackgroundColor=default;endArrow=none;endFill=0;entryX=0.5;entryY=0;entryDx=0;entryDy=0;" edge="1" parent="1" source="XGTD9m73oqBzsViWo1ol-48" target="XGTD9m73oqBzsViWo1ol-84">
          <mxGeometry relative="1" as="geometry">
            <mxPoint x="400" y="540" as="targetPoint" />
          </mxGeometry>
        </mxCell>
        <mxCell id="XGTD9m73oqBzsViWo1ol-85" style="edgeStyle=orthogonalEdgeStyle;shape=connector;rounded=0;orthogonalLoop=1;jettySize=auto;html=1;exitX=1;exitY=0.5;exitDx=0;exitDy=0;exitPerimeter=0;entryX=0;entryY=0.5;entryDx=0;entryDy=0;strokeColor=default;align=center;verticalAlign=middle;fontFamily=Helvetica;fontSize=11;fontColor=default;labelBackgroundColor=default;endArrow=none;endFill=0;" edge="1" parent="1" source="XGTD9m73oqBzsViWo1ol-48" target="XGTD9m73oqBzsViWo1ol-82">
          <mxGeometry relative="1" as="geometry">
            <Array as="points">
              <mxPoint x="410" y="540" />
              <mxPoint x="410" y="400" />
            </Array>
          </mxGeometry>
        </mxCell>
        <mxCell id="XGTD9m73oqBzsViWo1ol-48" value="" style="verticalLabelPosition=bottom;shadow=0;dashed=0;align=center;html=1;verticalAlign=top;shape=mxgraph.electrical.abstract.summation_point;" vertex="1" parent="1">
          <mxGeometry x="150" y="520" width="40" height="40" as="geometry" />
        </mxCell>
        <mxCell id="XGTD9m73oqBzsViWo1ol-50" value="&lt;font style=&quot;font-size: 16px;&quot;&gt;-&lt;/font&gt;" style="text;html=1;align=center;verticalAlign=middle;resizable=0;points=[];autosize=1;strokeColor=none;fillColor=none;fontFamily=Helvetica;fontSize=11;fontColor=default;labelBackgroundColor=default;" vertex="1" parent="1">
          <mxGeometry x="170" y="500" width="30" height="30" as="geometry" />
        </mxCell>
        <mxCell id="XGTD9m73oqBzsViWo1ol-80" style="edgeStyle=orthogonalEdgeStyle;shape=connector;rounded=0;orthogonalLoop=1;jettySize=auto;html=1;exitX=1;exitY=0.5;exitDx=0;exitDy=0;exitPerimeter=0;strokeColor=default;align=center;verticalAlign=middle;fontFamily=Helvetica;fontSize=11;fontColor=default;labelBackgroundColor=default;endArrow=none;endFill=0;entryX=0.5;entryY=1;entryDx=0;entryDy=0;" edge="1" parent="1" source="XGTD9m73oqBzsViWo1ol-52" target="XGTD9m73oqBzsViWo1ol-84">
          <mxGeometry relative="1" as="geometry">
            <mxPoint x="400" y="680" as="targetPoint" />
          </mxGeometry>
        </mxCell>
        <mxCell id="XGTD9m73oqBzsViWo1ol-90" style="edgeStyle=orthogonalEdgeStyle;shape=connector;rounded=0;orthogonalLoop=1;jettySize=auto;html=1;exitX=1;exitY=0.5;exitDx=0;exitDy=0;exitPerimeter=0;entryX=0.5;entryY=1;entryDx=0;entryDy=0;strokeColor=default;align=center;verticalAlign=middle;fontFamily=Helvetica;fontSize=11;fontColor=default;labelBackgroundColor=default;endArrow=none;endFill=0;" edge="1" parent="1" source="XGTD9m73oqBzsViWo1ol-52" target="XGTD9m73oqBzsViWo1ol-88">
          <mxGeometry relative="1" as="geometry" />
        </mxCell>
        <mxCell id="XGTD9m73oqBzsViWo1ol-52" value="" style="verticalLabelPosition=bottom;shadow=0;dashed=0;align=center;html=1;verticalAlign=top;shape=mxgraph.electrical.abstract.summation_point;" vertex="1" parent="1">
          <mxGeometry x="200" y="660" width="40" height="40" as="geometry" />
        </mxCell>
        <mxCell id="XGTD9m73oqBzsViWo1ol-53" style="edgeStyle=orthogonalEdgeStyle;shape=connector;rounded=0;orthogonalLoop=1;jettySize=auto;html=1;exitX=1;exitY=0.25;exitDx=0;exitDy=0;exitPerimeter=0;entryX=0;entryY=0.5;entryDx=0;entryDy=0;entryPerimeter=0;strokeColor=default;align=center;verticalAlign=middle;fontFamily=Helvetica;fontSize=11;fontColor=default;labelBackgroundColor=default;endArrow=none;endFill=0;" edge="1" parent="1" source="XGTD9m73oqBzsViWo1ol-17" target="XGTD9m73oqBzsViWo1ol-52">
          <mxGeometry relative="1" as="geometry" />
        </mxCell>
        <mxCell id="XGTD9m73oqBzsViWo1ol-75" style="edgeStyle=orthogonalEdgeStyle;shape=connector;rounded=0;orthogonalLoop=1;jettySize=auto;html=1;exitX=1;exitY=0.5;exitDx=0;exitDy=0;entryX=0.5;entryY=0;entryDx=0;entryDy=0;strokeColor=default;align=center;verticalAlign=middle;fontFamily=Helvetica;fontSize=11;fontColor=default;labelBackgroundColor=default;endArrow=none;endFill=0;" edge="1" parent="1" source="XGTD9m73oqBzsViWo1ol-61" target="XGTD9m73oqBzsViWo1ol-71">
          <mxGeometry relative="1" as="geometry" />
        </mxCell>
        <mxCell id="XGTD9m73oqBzsViWo1ol-61" value="" style="shape=sumEllipse;perimeter=ellipsePerimeter;whiteSpace=wrap;html=1;backgroundOutline=1;" vertex="1" parent="1">
          <mxGeometry x="150" y="240" width="40" height="40" as="geometry" />
        </mxCell>
        <mxCell id="XGTD9m73oqBzsViWo1ol-76" style="edgeStyle=orthogonalEdgeStyle;shape=connector;rounded=0;orthogonalLoop=1;jettySize=auto;html=1;exitX=1;exitY=0.5;exitDx=0;exitDy=0;entryX=0;entryY=0.5;entryDx=0;entryDy=0;strokeColor=default;align=center;verticalAlign=middle;fontFamily=Helvetica;fontSize=11;fontColor=default;labelBackgroundColor=default;endArrow=none;endFill=0;" edge="1" parent="1" source="XGTD9m73oqBzsViWo1ol-63" target="XGTD9m73oqBzsViWo1ol-71">
          <mxGeometry relative="1" as="geometry">
            <Array as="points">
              <mxPoint x="280" y="400" />
              <mxPoint x="280" y="450" />
            </Array>
          </mxGeometry>
        </mxCell>
        <mxCell id="XGTD9m73oqBzsViWo1ol-63" value="" style="shape=sumEllipse;perimeter=ellipsePerimeter;whiteSpace=wrap;html=1;backgroundOutline=1;" vertex="1" parent="1">
          <mxGeometry x="200" y="380" width="40" height="40" as="geometry" />
        </mxCell>
        <mxCell id="XGTD9m73oqBzsViWo1ol-66" style="edgeStyle=orthogonalEdgeStyle;shape=connector;rounded=0;orthogonalLoop=1;jettySize=auto;html=1;exitX=0.5;exitY=1;exitDx=0;exitDy=0;entryX=0.5;entryY=0;entryDx=0;entryDy=0;entryPerimeter=0;strokeColor=default;align=center;verticalAlign=middle;fontFamily=Helvetica;fontSize=11;fontColor=default;labelBackgroundColor=default;endArrow=none;endFill=0;" edge="1" parent="1" source="XGTD9m73oqBzsViWo1ol-61" target="XGTD9m73oqBzsViWo1ol-48">
          <mxGeometry relative="1" as="geometry" />
        </mxCell>
        <mxCell id="XGTD9m73oqBzsViWo1ol-69" style="edgeStyle=orthogonalEdgeStyle;shape=connector;rounded=0;orthogonalLoop=1;jettySize=auto;html=1;exitX=0.5;exitY=1;exitDx=0;exitDy=0;entryX=0.5;entryY=0;entryDx=0;entryDy=0;entryPerimeter=0;strokeColor=default;align=center;verticalAlign=middle;fontFamily=Helvetica;fontSize=11;fontColor=default;labelBackgroundColor=default;endArrow=none;endFill=0;" edge="1" parent="1" source="XGTD9m73oqBzsViWo1ol-63" target="XGTD9m73oqBzsViWo1ol-52">
          <mxGeometry relative="1" as="geometry" />
        </mxCell>
        <mxCell id="XGTD9m73oqBzsViWo1ol-70" value="&lt;font style=&quot;font-size: 16px;&quot;&gt;-&lt;/font&gt;" style="text;html=1;align=center;verticalAlign=middle;resizable=0;points=[];autosize=1;strokeColor=none;fillColor=none;fontFamily=Helvetica;fontSize=11;fontColor=default;labelBackgroundColor=default;" vertex="1" parent="1">
          <mxGeometry x="220" y="630" width="30" height="30" as="geometry" />
        </mxCell>
        <mxCell id="XGTD9m73oqBzsViWo1ol-71" value="" style="shape=sumEllipse;perimeter=ellipsePerimeter;whiteSpace=wrap;html=1;backgroundOutline=1;" vertex="1" parent="1">
          <mxGeometry x="310" y="430" width="40" height="40" as="geometry" />
        </mxCell>
        <mxCell id="XGTD9m73oqBzsViWo1ol-81" style="edgeStyle=orthogonalEdgeStyle;shape=connector;rounded=0;orthogonalLoop=1;jettySize=auto;html=1;exitX=1;exitY=0.5;exitDx=0;exitDy=0;exitPerimeter=0;strokeColor=default;align=center;verticalAlign=middle;fontFamily=Helvetica;fontSize=11;fontColor=default;labelBackgroundColor=default;endArrow=none;endFill=0;entryX=0;entryY=0.5;entryDx=0;entryDy=0;" edge="1" parent="1" source="XGTD9m73oqBzsViWo1ol-77" target="XGTD9m73oqBzsViWo1ol-91">
          <mxGeometry relative="1" as="geometry">
            <mxPoint x="400" y="820" as="targetPoint" />
          </mxGeometry>
        </mxCell>
        <mxCell id="XGTD9m73oqBzsViWo1ol-77" value="" style="verticalLabelPosition=bottom;shadow=0;dashed=0;align=center;html=1;verticalAlign=top;shape=mxgraph.electrical.abstract.summation_point;" vertex="1" parent="1">
          <mxGeometry x="310" y="800" width="40" height="40" as="geometry" />
        </mxCell>
        <mxCell id="XGTD9m73oqBzsViWo1ol-78" style="edgeStyle=orthogonalEdgeStyle;shape=connector;rounded=0;orthogonalLoop=1;jettySize=auto;html=1;exitX=1;exitY=0.25;exitDx=0;exitDy=0;exitPerimeter=0;entryX=0;entryY=0.5;entryDx=0;entryDy=0;entryPerimeter=0;strokeColor=default;align=center;verticalAlign=middle;fontFamily=Helvetica;fontSize=11;fontColor=default;labelBackgroundColor=default;endArrow=none;endFill=0;" edge="1" parent="1" source="XGTD9m73oqBzsViWo1ol-25" target="XGTD9m73oqBzsViWo1ol-77">
          <mxGeometry relative="1" as="geometry" />
        </mxCell>
        <mxCell id="XGTD9m73oqBzsViWo1ol-79" style="edgeStyle=orthogonalEdgeStyle;shape=connector;rounded=0;orthogonalLoop=1;jettySize=auto;html=1;exitX=0.5;exitY=1;exitDx=0;exitDy=0;entryX=0.5;entryY=0;entryDx=0;entryDy=0;entryPerimeter=0;strokeColor=default;align=center;verticalAlign=middle;fontFamily=Helvetica;fontSize=11;fontColor=default;labelBackgroundColor=default;endArrow=none;endFill=0;" edge="1" parent="1" source="XGTD9m73oqBzsViWo1ol-71" target="XGTD9m73oqBzsViWo1ol-77">
          <mxGeometry relative="1" as="geometry" />
        </mxCell>
        <mxCell id="XGTD9m73oqBzsViWo1ol-87" style="edgeStyle=orthogonalEdgeStyle;shape=connector;rounded=0;orthogonalLoop=1;jettySize=auto;html=1;exitX=1;exitY=0.5;exitDx=0;exitDy=0;strokeColor=default;align=center;verticalAlign=middle;fontFamily=Helvetica;fontSize=11;fontColor=default;labelBackgroundColor=default;endArrow=none;endFill=0;entryX=0.5;entryY=0;entryDx=0;entryDy=0;" edge="1" parent="1" source="XGTD9m73oqBzsViWo1ol-82" target="XGTD9m73oqBzsViWo1ol-93">
          <mxGeometry relative="1" as="geometry">
            <mxPoint x="570" y="400" as="targetPoint" />
          </mxGeometry>
        </mxCell>
        <mxCell id="XGTD9m73oqBzsViWo1ol-82" value="&lt;div&gt;NR&lt;/div&gt;&lt;div&gt;Divider&lt;br&gt;&lt;/div&gt;" style="rounded=1;whiteSpace=wrap;html=1;fontFamily=Helvetica;fontSize=11;fontColor=default;labelBackgroundColor=default;" vertex="1" parent="1">
          <mxGeometry x="470" y="370" width="70" height="60" as="geometry" />
        </mxCell>
        <mxCell id="XGTD9m73oqBzsViWo1ol-86" style="edgeStyle=orthogonalEdgeStyle;shape=connector;rounded=0;orthogonalLoop=1;jettySize=auto;html=1;exitX=1;exitY=0.5;exitDx=0;exitDy=0;entryX=0.5;entryY=1;entryDx=0;entryDy=0;strokeColor=default;align=center;verticalAlign=middle;fontFamily=Helvetica;fontSize=11;fontColor=default;labelBackgroundColor=default;endArrow=none;endFill=0;" edge="1" parent="1" source="XGTD9m73oqBzsViWo1ol-84" target="XGTD9m73oqBzsViWo1ol-82">
          <mxGeometry relative="1" as="geometry" />
        </mxCell>
        <mxCell id="XGTD9m73oqBzsViWo1ol-89" style="edgeStyle=orthogonalEdgeStyle;shape=connector;rounded=0;orthogonalLoop=1;jettySize=auto;html=1;exitX=1;exitY=0.5;exitDx=0;exitDy=0;entryX=0;entryY=0.5;entryDx=0;entryDy=0;strokeColor=default;align=center;verticalAlign=middle;fontFamily=Helvetica;fontSize=11;fontColor=default;labelBackgroundColor=default;endArrow=none;endFill=0;" edge="1" parent="1" target="XGTD9m73oqBzsViWo1ol-88">
          <mxGeometry relative="1" as="geometry">
            <mxPoint x="442" y="605" as="sourcePoint" />
            <mxPoint x="552" y="670" as="targetPoint" />
            <Array as="points">
              <mxPoint x="507" y="605" />
              <mxPoint x="507" y="630" />
            </Array>
          </mxGeometry>
        </mxCell>
        <mxCell id="XGTD9m73oqBzsViWo1ol-92" style="edgeStyle=orthogonalEdgeStyle;shape=connector;rounded=0;orthogonalLoop=1;jettySize=auto;html=1;exitX=1;exitY=0.5;exitDx=0;exitDy=0;entryX=0.5;entryY=1;entryDx=0;entryDy=0;strokeColor=default;align=center;verticalAlign=middle;fontFamily=Helvetica;fontSize=11;fontColor=default;labelBackgroundColor=default;endArrow=none;endFill=0;" edge="1" parent="1" source="XGTD9m73oqBzsViWo1ol-84" target="XGTD9m73oqBzsViWo1ol-91">
          <mxGeometry relative="1" as="geometry" />
        </mxCell>
        <mxCell id="XGTD9m73oqBzsViWo1ol-84" value="&lt;div&gt;Mean&lt;/div&gt;&lt;div&gt;Value&lt;br&gt;&lt;/div&gt;" style="rounded=0;whiteSpace=wrap;html=1;fontFamily=Helvetica;fontSize=11;fontColor=default;labelBackgroundColor=default;" vertex="1" parent="1">
          <mxGeometry x="380" y="580" width="65" height="50" as="geometry" />
        </mxCell>
        <mxCell id="XGTD9m73oqBzsViWo1ol-94" style="edgeStyle=orthogonalEdgeStyle;shape=connector;rounded=0;orthogonalLoop=1;jettySize=auto;html=1;exitX=1;exitY=0.5;exitDx=0;exitDy=0;entryX=0.5;entryY=1;entryDx=0;entryDy=0;strokeColor=default;align=center;verticalAlign=middle;fontFamily=Helvetica;fontSize=11;fontColor=default;labelBackgroundColor=default;endArrow=none;endFill=0;" edge="1" parent="1" source="XGTD9m73oqBzsViWo1ol-88" target="XGTD9m73oqBzsViWo1ol-93">
          <mxGeometry relative="1" as="geometry" />
        </mxCell>
        <mxCell id="XGTD9m73oqBzsViWo1ol-88" value="&lt;div&gt;NR&lt;/div&gt;&lt;div&gt;Divider&lt;br&gt;&lt;/div&gt;" style="rounded=1;whiteSpace=wrap;html=1;fontFamily=Helvetica;fontSize=11;fontColor=default;labelBackgroundColor=default;" vertex="1" parent="1">
          <mxGeometry x="540" y="600" width="70" height="60" as="geometry" />
        </mxCell>
        <mxCell id="XGTD9m73oqBzsViWo1ol-97" style="edgeStyle=orthogonalEdgeStyle;shape=connector;rounded=0;orthogonalLoop=1;jettySize=auto;html=1;exitX=1;exitY=0.5;exitDx=0;exitDy=0;strokeColor=default;align=center;verticalAlign=middle;fontFamily=Helvetica;fontSize=11;fontColor=default;labelBackgroundColor=default;endArrow=oval;endFill=1;" edge="1" parent="1" source="XGTD9m73oqBzsViWo1ol-91">
          <mxGeometry relative="1" as="geometry">
            <mxPoint x="700" y="820" as="targetPoint" />
          </mxGeometry>
        </mxCell>
        <mxCell id="XGTD9m73oqBzsViWo1ol-91" value="&lt;div&gt;NR&lt;/div&gt;&lt;div&gt;Divider&lt;br&gt;&lt;/div&gt;" style="rounded=1;whiteSpace=wrap;html=1;fontFamily=Helvetica;fontSize=11;fontColor=default;labelBackgroundColor=default;" vertex="1" parent="1">
          <mxGeometry x="570" y="790" width="70" height="60" as="geometry" />
        </mxCell>
        <mxCell id="XGTD9m73oqBzsViWo1ol-95" style="edgeStyle=orthogonalEdgeStyle;shape=connector;rounded=0;orthogonalLoop=1;jettySize=auto;html=1;exitX=1;exitY=0.5;exitDx=0;exitDy=0;strokeColor=default;align=center;verticalAlign=middle;fontFamily=Helvetica;fontSize=11;fontColor=default;labelBackgroundColor=default;endArrow=oval;endFill=1;" edge="1" parent="1" source="XGTD9m73oqBzsViWo1ol-93">
          <mxGeometry relative="1" as="geometry">
            <mxPoint x="730" y="505" as="targetPoint" />
          </mxGeometry>
        </mxCell>
        <mxCell id="XGTD9m73oqBzsViWo1ol-93" value="&lt;div&gt;Mean&lt;/div&gt;&lt;div&gt;Value&lt;br&gt;&lt;/div&gt;" style="rounded=0;whiteSpace=wrap;html=1;fontFamily=Helvetica;fontSize=11;fontColor=default;labelBackgroundColor=default;" vertex="1" parent="1">
          <mxGeometry x="620" y="480" width="65" height="50" as="geometry" />
        </mxCell>
        <mxCell id="XGTD9m73oqBzsViWo1ol-96" value="o_alpha" style="text;html=1;align=center;verticalAlign=middle;resizable=0;points=[];autosize=1;strokeColor=none;fillColor=none;fontFamily=Helvetica;fontSize=11;fontColor=default;labelBackgroundColor=default;" vertex="1" parent="1">
          <mxGeometry x="680" y="480" width="60" height="30" as="geometry" />
        </mxCell>
        <mxCell id="XGTD9m73oqBzsViWo1ol-98" value="o_phi" style="text;html=1;align=center;verticalAlign=middle;resizable=0;points=[];autosize=1;strokeColor=none;fillColor=none;fontFamily=Helvetica;fontSize=11;fontColor=default;labelBackgroundColor=default;" vertex="1" parent="1">
          <mxGeometry x="640" y="790" width="50" height="30" as="geometry" />
        </mxCell>
      </root>
    </mxGraphModel>
  </diagram>
</mxfile>
